{"title":"He Walked By Night 1948","uid":6622810,"size":783348553,"categoryP":"video","categoryS":"movies","magnet":"?xt=urn:btih:2f1e692fd5d431495199dc663aaa303fcc1458c7&amp;dn=He+Walked+By+Night+1948&amp;tr=udp%3A%2F%2Ftracker.openbittorrent.com%3A80&amp;tr=udp%3A%2F%2Fopen.demonii.com%3A1337&amp;tr=udp%3A%2F%2Ftracker.coppersurfer.tk%3A6969&amp;tr=udp%3A%2F%2Fexodus.desync.com%3A6969","seeders":1,"leechers":0,"uploader":"shebo2011","files":6,"time":1314059417,"description":"General\nComplete name                    : C:\\Downloads\\uTorrent\\He Walked By Night 1948\\He Walked By Night 1948.avi\nFormat                           : AVI\nFormat/Info                      : Audio Video Interleave\nFile size                        : 747 MiB\nDuration                         : 1h 19mn\nOverall bit rate                 : 1 319 Kbps\nWriting application              : VirtualDubMod 1.5.10.2 (build 2540/release)\nWriting library                  : VirtualDubMod build 2540/release\n\nVideo\nFormat                           : MPEG-4 Visual\nFormat profile                   : Advanced Simple@L5\nFormat settings, BVOP            : Yes\nFormat settings, QPel            : No\nFormat settings, GMC             : No warppoints\nFormat settings, Matrix          : Default (H.263)\nCodec ID                         : XVID\nCodec ID/Hint                    : XviD\nDuration                         : 1h 19mn\nBit rate                         : 1 237 Kbps\nWidth                            : 512 pixels\nHeight                           : 384 pixels\nDisplay aspect ratio             : 4:3\nFrame rate                       : 23.976 fps\nColor space                      : YUV\nChroma subsampling               : 4:2:0\nBit depth                        : 8 bits\nScan type                        : Progressive\nBits/(Pixel*Frame)               : 0.262\nStream size                      : 700 MiB (94%)\nWriting library                  : XviD 1.1.2 (UTC 2006-11-01)\n\nAudio\nFormat                           : MPEG Audio\nFormat version                   : Version 1\nFormat profile                   : Layer 3\nCodec ID                         : 55\nCodec ID/Hint                    : MP3\nDuration                         : 1h 19mn\nBit rate mode                    : Variable\nBit rate                         : 69.9 Kbps\nNominal bit rate                 : 80.0 Kbps\nChannel(s)                       : 1 channel\nSampling rate                    : 48.0 KHz\nStream size                      : 39.6 MiB (5%)\nAlignment                        : Aligned on interleaves\nInterleave, duration             : 24 ms (0.58 video frame)\nInterleave, preload duration     : 263 ms\nWriting library                  : LAME3.97b\nEncoding settings                : -m m -V 4 -q 2 -lowpass 20.3 --abr 80\n\n\nSubtitles (removable, .srt files) :English, Croatian, French, Spanish\n\nIF YOU DON'T NEED ANY OF THESE SUBTITLES\nSIMPLY DELETE THEM! (Delete .srt files)\n\n","torrent":{"xt":"urn:btih:2f1e692fd5d431495199dc663aaa303fcc1458c7","amp;dn":"He+Walked+By+Night+1948","amp;tr":["udp%3A%2F%2Ftracker.openbittorrent.com%3A80","udp%3A%2F%2Fopen.demonii.com%3A1337","udp%3A%2F%2Ftracker.coppersurfer.tk%3A6969","udp%3A%2F%2Fexodus.desync.com%3A6969"],"infoHash":"2f1e692fd5d431495199dc663aaa303fcc1458c7","infoHashBuffer":{"type":"Buffer","data":[47,30,105,47,213,212,49,73,81,153,220,102,58,170,48,63,204,20,88,199]},"announce":[],"urlList":[]}}